<?xml version="1.0" encoding="UTF-8"?>
<svg version="1.1" viewBox="0 0 1600 1600" width="32" height="32" xmlns="http://www.w3.org/2000/svg">
<path transform="translate(0)" d="m0 0h1600v1600h-1600z" fill="#F9FCFB"/>
<path transform="translate(500,439)" d="m0 0h44l27 4 17 5 13 5 16 9 9 7 10 9 7 7 10 15 9 17 7 18 6 21 2 8 1 8v33l-2 25v20l1-5 3-3 4-7 5-4 21-1h14l30 2 20 3 27 7 19 5 5 3 12 5 21 7 16 7 7 4 12 5 30 15 9 4 14 5 4 2v2l7 6v2l5 1 5 5 8 2v-2l5-2h3v-2l15-6 7-5 4-4 6-4 11-6 13-4 20-6 11-2h32l27 1 21 4 6 3 12 2 14 8 16 12 6 4 3 3v2l4 2 7 6 14 14 10 15 8 14 5 14 5 11v2h2l3 7 2 15 3 7v16l-1 27-2 27-3 18-3 8-4 11-5 12-6 12-3 3-6 12h-2l-2 4-5 4-3 5-4 5-20 15-6 4-22 11-31 14-8 3-10 6-3 5-9 11-2 5-1 3-10 7-5 4-16 7-25 6-15 3-21 2h-21l-26-1-29-4-36-9-22-8-24-8-28-14-9-5-11-5-2-2-5-4-5-3-19-12 1-2 4-1-11-7-4-4-3-5-4-4-2-5-2-2-4-5 1-4 5 1 5 2 2-2-3-3-1-5-8-4v-2l-2-1-3-2v-2h-2v-2l-4 1v-2h10l1 2 3 2 5-1-5-9-13-20-12-19-2-3-4 2-5 4-8 7-4 2 2-4 11-9 6-5-4-7-1-2-3 1-7 8-7 7v-3l7-8 7-7-2-5-6-9-11-17v59l16-16 7-5-2 5-11 9-7 8-3 1v3l4-2v2l-4 3v26 3l-10 1h-3l1 6-1 6h-1l-1-9-5 8-3 7-1-2 5-14 2-2h-14l-7-1v-7l-7 1-2-1v-2h8v-147l-2 4-1 14 1 4 2 1v37l-1 3v11l-1 10 1 8v9l1 13v15l-1 9-5 2 2-10v-30l-3-17-1-7v-20l-1-2-2 2-8-3-1-1-2-15-3-9-3-8-6-15-2-7 2-6-2 1v-4h-2l-1-5h-2l-1-5-4 1-1-3-2 1v-4h2l-1-6 2-6 1-5v-7l1-2h2l1-4-2-1-1-9 4-5 3-7 9-11 5-5 18-14 8-5h2l1-3 12-2 6 12 8 9h2l-2-4h-2l-8-11-5-10-9-20-12-23-12-21-2-5 4 4 6 10 12 21 2 4-3-10-5-13h3l4 7-1-5-1-3-3-3-3-10-1-5 4 5 3 5v3l1-2h2l1-17-2-2 1-7 2-2 1-9-2-8-4-20-4-15-6-17-11-19-11-14-10-10-18-13 2-1 16 11 12 11 10 13 9 15 6 13 6 19 4 16 3 16v-8l-4-23-4-14-4-13-11-23-8-12-9-11-11-10-15-10-16-8-20-6-16-3-25-2h-24l-31 3-28 4-24 5-7 1 3-2 21-5 32-5z" fill="#DEFBB3"/>
<path transform="translate(500,439)" d="m0 0h44l27 4 17 5 13 5 16 9 9 7 10 9 7 7 10 15 9 17 7 18 6 21 2 8 1 8v33l-2 25v22l3 19 3 9h2l5 7 5 1 2-9 3-2 16-2h44l23 3 7 4 2 3 5 2 1 2 13-1h12l11 1v1l-24 1-9 1-12 4 1 1 9-1 10-2h2v3l-6 1v2h10l3 1 5-1-2-1v-3h-5v-1l14-1 7 1 3-1 5 4v-2l-3-3 7 1 3 3 3 1 7 8 7 11 2 3 3-2 5-4h9l9 3 16 3 16 6v2l6 1 4 3 5 2 8 5v2l2 1v5h-19-2-9l-3 3-18-3h-8l-2 2 1 5 4 2v3l4 2 5 9 2 5 2 6 4 8 3 7 2 5-4 3v4h8l3 2 1 6-4 1h-2l3 5 11 11 8 13 5 11 1 10 1 6v22l-4 17-8 16-7 9-8 8-10 7-16 7-15 3-12 1h-46l-1-22-21 9-1 12-1 1h-35l-4-5-5-9-7-10-10-16-7-11-4 2-5 4-8 7-4 2 2-4 11-9 6-5-4-7-1-2-3 1-7 8-7 7v-3l7-8 7-7-2-5-6-9-11-17v59l16-16 7-5-2 5-11 9-7 8-3 1v3l4-2v2l-4 3v26 3l-10 1h-3l1 6-1 6h-1l-1-9-5 8-3 7-1-2 5-14 2-2h-14l-7-1v-7l-7 1-2-1v-2h8v-147l-2 4-1 14 1 4 2 1v37l-1 3v11l-1 10 1 8v9l1 13v15l-1 9-5 2 2-10v-30l-3-17-1-7v-20l-1-2-2 2-8-3-1-1-2-15-3-9-3-8-6-15-2-7 2-6-2 1v-4h-2l-1-5h-2l-1-5-4 1-1-3-2 1v-4h2l-1-6 2-6 1-5v-7l1-2h2l1-4-2-1-1-9 4-5 3-7 9-11 5-5 18-14 8-5h2l1-3 12-2 6 12 8 9h2l-2-4h-2l-8-11-5-10-9-20-12-23-12-21-2-5 4 4 6 10 12 21 2 4-3-10-5-13h3l4 7-1-5-1-3-3-3-3-10-1-5 4 5 3 5v3l1-2h2l1-17-2-2 1-7 2-2 1-9-2-8-4-20-4-15-6-17-11-19-11-14-10-10-18-13 2-1 16 11 12 11 10 13 9 15 6 13 6 19 4 16 3 16v-8l-4-23-4-14-4-13-11-23-8-12-9-11-11-10-15-10-16-8-20-6-16-3-25-2h-24l-31 3-28 4-24 5-7 1 3-2 21-5 32-5z" fill="#84DCBF"/>
<path transform="translate(883,799)" d="m0 0 2 3 2 4 9 2 12 5 11 7 13 12 7 10 7 14 3 11 1 6v22l-4 17-8 16-7 9-8 8-10 7-16 7-15 3-12 1h-46l-1-22-21 9-1 12-1 1h-35l-4-5-5-9-7-10-10-16-7-11-4 2-5 4-8 7-4 2 2-4 11-9 6-5-4-7-1-2-3 1-7 8-7 7v-3l7-8 7-7-2-5-6-9-11-17v59l16-16 7-5-2 5-11 9-7 8-3 1v3l4-2v2l-4 3v26 3l-10 1h-3l1 6-1 6h-1l-1-9-5 8-3 7-1-2 5-14 2-2h-14l-7-1v-7l-7 1-2-1v-2h9l1-149h36l7 10 14 22 16 25 7 11 3 3 14-8 1-1 1-8-2-1h2v-53h37v42l16-8 5-2 1-32 37-1 3-1v2l9-1 11 2z" fill="#010000"/>
<path transform="translate(972,804)" d="m0 0h38l5 12 19 49 11 29 15-39 12-31 7-18 2-2h38l3 29 4 45 6 70 1 14-1 1h-35l-1-2-6-73v-17h-2l-3 10-6 17-14 40-7 19-3 5h-20l-5-10-13-38-9-26-6-17-1 2-6 76-1 12-1 2h-35l-1-5 4-40 4-46 5-57z" fill="#010000"/>
<path transform="translate(883,799)" d="m0 0 2 3 2 4 9 2 12 5 11 7 13 12 7 10 7 14 3 11 1 6v22l-4 17-8 16-7 9-8 8-10 7-16 7-15 3-12 1h-46l-1-22-2-1 2-2 1-8-2-1h2l-1-10 1-31-4 1 3-3v-7l-4-1 5-1v-10l-3-1 2-1 1-8-2-1h2l-1-10v-19l1-22 37-1 3-1v2l9-1 11 2z" fill="#010000"/>
<path transform="translate(949,895)" d="m0 0h1l1 14-3 9v8l3 2v2h2l1-3v2l2 1h-2l1 5-2 9 1 7 1 2-1 2v10l2-1 2-2 22 1v1l-19 1v9l-2 1 1 2-4 4-3 5v4l-2 2-3 1 3 7h-6l-2 4v3l-4 4-9 1v2h-6l1 3 20 8 11 4 26 4 11-1v1l5 1 3 3 5 2 1-1h17l2-1h9l20-4 9-3h6l3 4v2l4 3-13 5-3 3-13 4-7 3-13 4-21 1-28-2-2-1-20-3-19-4-12-2-16-5-34-9-24-10-9-4-17-8-16-10-17-8-10-4-13-5-5-5-1-5-8-4v-2l-2-1-3-2v-2h-2v-2l-4 1v-2h10l1 2 3 2 5-1 36-1 1-12 10-5 13-5v23l50-1 20-3 15-6 11-7 10-9 7-9 8-16z" fill="#87E0C2"/>
<path transform="translate(528,805)" d="m0 0h64l12 2 10 4 11 8 7 10 4 13v19l-3 12-7 11-8 7-12 6 2 5 12 14 14 17 11 13 9 10 4 6v2h-48l1-3-4-3-4-7-14-18-10-13-13-17-1-2v45l-1 17-8 1-28-1-1-14z" fill="#010000"/>
<path transform="translate(1e3 870)" d="m0 0 2 1 7 20 6 17 14 41 5 12h20l5-11 10-30 9-25 7-20 2-4h2l4 56 3 36h21l11 1v1l-12 1-5 1-8-2-1 5 5 4h4v3l-6 7-6 4h-2v3h-2l-1 3-5 3-2 9-2 5-3 9-2 4-7 3-4 4h-6l-13 4-16 3h-10l-1 1h-17l-4 1-3-3-3-2-6-1-4-1-5 1-26-4-16-6-18-7 2-1v-2h6v-2l6-1v-2l6-2v-3l1-4 7-1-2-6 6-6-2-1 6-10 1-2h2l-1-10 20-1h13l7-90z" fill="#BFF7A2"/>
<path transform="translate(527,809)" d="m0 0h1v154h36v-63l4 4 12 16 11 14 10 13 6 8 1 3 4 4v1h10l-4 1-1 2-6 1-1 4-1 1 2 1v-2h3v-2l6-2v2l-8 5h-3l-2 4-2 7h-2l1 4h4l2-4 7-7 6-4 2 1-13 12-4 4 1 5 3 2h3l2-4 18-18 2 1-23 23v5l3 3 3 6 5 4 5-4-2 4-2 3 4 3 4 1v-2l2 1-2 5 7 2 1 3 10-1 10-7 8-8v3l-9 9-9 6h-11l-8-6-2-2-3 3h-2l-1 3-5 1-2 1-21 3-17 4-3-1 9-3h5v-2l-5-1-3-1-4 4h-2l-2 5-13 6-18 8-14 8-9 5-7 6-10 6-8 6-6 4-14 11-5 4-2-1 13-11 10-8 7-4 7-6 2-8h3v-2l5-5 3-4h-7l-2 5-2-1 2-5-7-1-13-5-13-9-15-15-10-13-13-23-9-16-11-17-12-13-7-7-13-10-1-2 5 2 16 13 11 11 10 14 12 21 10 18 9 13 8 10 14 14 14 8 15 5 3-1 2-6h2l1-7-5-1-4-2v-2l5 1 7 3v2h8l6-12-5-3-4 4 1-7-5-2-7-5v-2l-5-2-10-9v-2l4 2 16 13 10 6 2-6 4-10h-3l-4-1-1-2-1-5-6-7-5-4h-3l-4-6-9-7-3-1-5-5-3-1v-2h5l-1-9 2-1-2-4-20-9-22-12-17-10-16-13-13-13-9-14-7-14-2-11v-12l2-14 4-10 4-8 2 2-4 8-4 12-1 7v15l3 13 8 15 10 13 11 11 10 8 16 10 22 12 16 8 7 1v-6l-20-7-17-8-12-8-10-9-9-9-8-11-8-15-4-13-1-5v-11l4-15 8-15 1 2-4 8-6 18v14l5 16 7 14 9 12 11 12 13 9 19 10 21 7 7-1 1-3-5-1-11-2-15-6-10-6-10-8-8-9-10-16-7-18-2-14 3-17 3-7 1 4-3 9-1 5v9l4 16 6 14 10 15 8 9 13 9 13 6 11 3h4v-2l-3-1-1-5 3-8 4-5 4-1 2-4 4-4 5-2 2-3 7-1 1-3 3 17v-6l-1-3-2-24v-12h-2v-10h3l3 4z" fill="#74E5DB"/>
<path transform="translate(756,981)" d="m0 0 5 1 5 2 4-1 18 7 12 5 15 8 13 8 15 7 9 4 19 8 13 4 37 10 9 3 16 3 22 4 9 1 2 1 28 2h9l16-2 13-4 8-4 9-3 5-3 11-4 12-2 10-3 8-3h2l2-1 1 3-1 3 5 2 4 1 4 2-3 6-10 12-2 5-1 3-10 7-5 4-16 7-25 6-15 3-21 2h-21l-26-1-29-4-36-9-22-8-24-8-28-14-9-5-11-5-2-2-5-4-5-3-19-12 1-2 4-1-11-7-4-4-3-5-4-4-2-5-2-2-4-5z" fill="#D5EFE2"/>
<path transform="translate(710,630)" d="m0 0h14l30 2 20 3 27 7 19 5 5 3 12 5 21 7 16 7 7 4 12 5 30 15 9 4 14 5 4 2v2l7 6v2l5 1 5 5 2 4-4 3 1 3-1 2 2 1 1 2-1 3-13 2-6-2-6-4-5-2-5-3-4-1-1-2-14-4-4-2-18-3-4-2h-9l-5 4-4 2-8-14-7-7v-2l-5-1-5-3h-2l4 3v2l-5-2v-2l-9 1-9-1-3 1v3l3 1v1l-7 1-3-1-9-1v-2l6-1v-3l-10 2h-2l-1 2v-2l-8 2-4-1 1-2 14-4 22-2h-16l-4 1h-7v-3l-6-2v-2l-7-4-23-3h-44l-16 2-3 1-2 9h-5l-5-6v-2h-2l-5-13-2-16h2v-6l3-3 4-7 5-4z" fill="#D5EFE3"/>
<path transform="translate(1078,666)" d="m0 0h20l33 2 18 3 26 7 15 8 10 7 9 7 10 9 11 10 5 5 9 10 7 11 8 14 4 8 9 22 5 15 4 21 1 20-3 39-4 23-5 16-6 20-12 26-7 11-9 10-2 3-5 3-10 8-2 3-7 3-5 2v2l-8 7-8 6-13 7-17 6-11 6-7 3-19 10-10 5-3-1 2-5 11-13 2-4 14-8 10-4 18-8 14-6 14-8 4-2 19-14 9-9 3-5 5-4 1-2h2l1-4 5-9 3-3 9-20 4-12 3-7 2-7 2-18 2-23 1-38-1-8-2-4-2-15-2-7h-2l-7-15-6-16-6-10-11-16-12-12-8-7-8-8-5-3-11-8-10-7-11-5-9-1-10-4-17-3-31-1h-28l-16 3-11 4-15 4-12 6-5 4-5 2-2 4-8 5-10 4h-3v2l-8 2v2l-8-1-5-4v-2l-5-1v-2l-4-2-4-4 1-1 14-2h14l10-3 26-16 12-5 7-3 11-3 12-5 6-1z" fill="#EFFAD8"/>
<path transform="translate(931,745)" d="m0 0 6 1h13l5 2 11 8 8 6 7 4 5 4 7 3 4-1 5 2 4 7v4l5 1 1 8v2h2v3l-4 1-1 5h-36l-2 10-4 46-5 57-4 42-2 6-3-1v-10l1-3-2-5 1-10 1-7h-3l-4-4v-8l3-9-1-36-2-13-1-6-8-15-7-9-10-10v-3l5-1-1-6-10-2-1-5 4-3-4-7-4-11-2-3-2-5-2-6-2-5-2-1-3-3v-3l-4-1-2-2 1-5 2-2h8l18 3 2-2v-1h9z" fill="#AAECA8"/>
<path transform="translate(397,813)" d="m0 0 2 2-4 8-4 12-1 7v15l3 13 8 15 10 13 11 11 10 8 16 10 22 12 45 22 14 9 13 10 3 2v2l6 3 1 3 5 4 4-2 1-3 5-5 3-1 1-2 4 2 3 4-1 5 3-1v3h-3v8l4-2 2-4 3 1v2l3-1 5 6v1l8-8 2 2 1 8-2 5 6-5 3-1 3 3 4 7 3 3-1 5-2 2h-6l-1-3h-2l-2-2v2l7 4 5 5-1 2-15 2v2l-20 4-7 1 2-2 7-2h5v-2l-5-1-3-1-4 4h-2l-2 5-13 6-18 8-14 8-9 5-7 6-10 6-8 6-6 4-14 11-5 4-2-1 13-11 10-8 7-4 7-6 2-8h3v-2l5-5 3-4h-7l-2 5-2-1 2-5-7-1-13-5-13-9-15-15-10-13-13-23-9-16-11-17-12-13-7-7-13-10-1-2 5 2 16 13 11 11 10 14 12 21 10 18 9 13 8 10 14 14 14 8 15 5 3-1 2-6h2l1-7-5-1-4-2v-2l5 1 7 3v2h8l6-12-5-3-4 4 1-7-5-2-7-5v-2l-5-2-10-9v-2l4 2 16 13 10 6 2-6 4-10h-3l-4-1-1-2-1-5-6-7-5-4h-3l-4-6-9-7-3-1-5-5-3-1v-2h5l-1-9 2-1-2-4-20-9-22-12-17-10-16-13-13-13-9-14-7-14-2-11v-12l2-14 4-10z" fill="#6FDCD1"/>
<path transform="translate(1009,925)" d="m0 0h2l7 21 4 9 6 10 5 5 2 1-1 4v2l1 4v3l-1 4 2 1v4l3 1-2 3-3 1-2 3h-2v4l-4 1-2 4h-2l-2 4-4 2h-3l-2 4-4 2v2l-6 4-6 2-9 4-13-1-17-3-16-6-18-7 2-1v-2h6v-2l6-1v-2l6-2v-3l1-4 7-1-2-6 6-6-2-1 6-10 1-2h2l-1-10 20-1h13l1-14 1-5 4 4 1-5 2-2v-2h2l1-10z" fill="#A1E7B3"/>
<path transform="translate(756,981)" d="m0 0 5 1 5 2 4-1 18 7 12 5 15 8 13 8 15 7 9 4 19 8 13 4 37 10 9 3 16 3 22 4 9 1 2 1 28 2h9l16-2 13-4 8-4 9-3 5-3 11-4 12-2 10-3 8-3h2l2-1 1 3-1 3 3 2-1 4-10 7-7 4-5 4-8 4-9 3-12 3-10 3-19 4h-38l-17-3-20-4-31-4-13-3-11-3-35-11-24-9-12-5-12-6-13-8-7-3-9-4-9-3-13-4-7-5-2-6-2-2-4-5z" fill="#C0EBD7"/>
<path transform="translate(644,643)" d="m0 0 6 1 11 5 2-2 12 22 10 23 7 10 2 4h2l3 4-1 2-6-5-6-7-4-8v-3l-12 3-4 4-8 5-17 13-5 5-10 13-2 5-5 6-10 3-4 1-2-1-1 2-2-3v-4l-3 1-4-5h-2l1-8-3-1v-5h-1v-9l3-9-5 2-1-1 1-9 3-6 6-8 2-1 1-6 7-6 12-12 10-8 9-4z" fill="#D5EFE3"/>
<path transform="translate(713,655)" d="m0 0h29l18 1 25 5 18 5 17 6 13 7 3 2v3h2l3 3 4 3h11l14 4 8 4 12 3 7 2 1 2 6 1 21 4 14 5 4 2 8 2 12 6v2l3 1-1 4 2 1 1 2-1 3-13 2-6-2-6-4-5-2-5-3-4-1-1-2-14-4-4-2-18-3-4-2h-9l-5 4-4 2-8-14-7-7v-2l-5-1-5-3h-2l4 3v2l-5-2v-2l-9 1-9-1-3 1v3l3 1v1l-7 1-3-1-9-1v-2l6-1v-3l-10 2h-2l-1 2v-2l-8 2-4-1 1-2 14-4 22-2h-16l-4 1h-7v-3l-6-2v-2l-7-4-23-3h-44l-16 2-3 1-2 9h-5l-5-6v-2h-2l-4-9 1-7 6-2 3-4 21-2z" fill="#BFEAD7"/>
<path transform="translate(654,954)" d="m0 0h2v2h9v7h21l3 2-5 1-1 6-1 3 5-9 2 1 1 2v-5l5-1 3 1-3 28-3 14-6 13h-2l-2 5h-2l-2 5-8 5-7 3-10 1-9-1v-1l8-1 11-8 7-7-5 4-8 7-5 3h-10l-1-2-5-2-2-1 1-5-1 1-6-1-3-4 3-4-4 3-7-8-3-5-1-1v-5l3-1 2-4 18-18-7 6-13 13-1 2-4 1-4-5 1-4 14-14-8 6-6 7h-4l-1-4h2v-6l4-5 9-5h2v-2l-3 2h-3v2h-3v2l-3-1 2-4 3-3 5-1 9-1h24l7 1-4-6z" fill="#D4E1DD"/>
<path transform="translate(861,837)" d="m0 0h11l8 1 10 5 8 6v3h3l2 5 3 3 4 11 1 6v14l-3 12-7 12-8 8-12 6-9 2h-12v-11l2-4-2 1v-55-2-17z" fill="#7DD3B8"/>
<path transform="translate(650,783)" d="m0 0 4 1 3 2 2 4 4 4h8v2l8 1h9v2l5-1 11 5 2 6 4 2 8 12 5 8v2h2l5 9 3 4 2 4v4h2v3l2 1 8 8v2h-5l-11-17-14-22-15-23-36-1v149h-1l-1-147-2 4-1 14 1 4 2 1v37l-1 3v11l-1 10 1 8v9l1 13v15l-1 9-5 2 2-10v-30l-3-17-1-7v-20l-1-2-2 2-8-3-1-1-2-15-3-9-3-8-6-15-2-7 3-5 6-5 1-2 8-4 3-3z" fill="#71E8DC"/>
<path transform="translate(1009,925)" d="m0 0h2l7 21 4 9 6 10 5 5 2 1-1 4v2l1 4v3l-1 4 2 1v4l3 1-2 3-3 1-2 3h-2v4l-4 1-2 4h-2l-2 4-4 2h-9l-3-3-3-1-2-6-3-3v-3h-2v-3l-3-1-1-4-2-1-2-4 1-3-4-1-1-6h2v-2l-2-1 5-8 1-2h-8v-1h13l1-14 1-5 4 4 1-5 2-2v-2h2l1-10z" fill="#AAEDA8"/>
<path transform="translate(1042,994)" d="m0 0 1 2 15-2 5 1 17 1 5 2 4-1v6l-2 7-3 5-3 9-7 3-4 4h-6l-13 4-16 3h-10l-1 1h-17l-4 1-3-3-3-2-6-1v-3l5-3 7-2 4-2v-2l5-4 1-2 8-4 5-6 4-1v-4l4-4h3v-2z" fill="#BCF0B5"/>
<path transform="translate(657,673)" d="m0 0h9l5 1v2l7 1 6 12 6 11 4 4v2h2l3 4-1 2-6-5-6-7-4-8v-3l-12 3-4 4-8 5-17 13-5 5-10 13-2 5-5 6-10 3-4 1-2-1-1 2-2-3v-4l-3 1-4-5h-2l2-9 3-7 4-4h2l2-4 11-11 11-7 10-9 7-6 9-5z" fill="#BFEBD8"/>
<path transform="translate(931,745)" d="m0 0 6 1h13l5 2 11 8 8 6 7 4 5 4 7 3 4-1 5 2 4 7v4l5 1 1 8v2h2v3l-4 1-1 5h-36l-3-2 1-1-2-10-3-4-7-4-9-5v-3h-2v-2l-4-1-4-4-3-1-5-5-6-7-5-4-1-3 2-2v-1h9z" fill="#BCF0B5"/>
<path transform="translate(878,714)" d="m0 0h9l9 3 16 3 16 6v2l6 1 4 3 5 2 8 5v2l2 1v5h-19-2-9l-3 3-18-3h-8l-2 2 1 5 4 2v3l4 2 5 9 2 5 2 6 4 8 3 7 2 5-4 3-2 1-8-16-15-26-11-22-6-10-4-10 1-2 6-3z" fill="#87E1C3"/>
<path transform="translate(702,865)" d="m0 0 4 5 11 17 6 9-2 4-8 8-2 3h-2v3l8-8 2-3h2l2-4 3 1 5 10-12 9-7 6-1 2 8-7 9-7 4-2 6 9 7 11 11 17 5 7-1 5-6-2-7-2-13-2v-1h17l1-1-15-5-4 1-1 2-5-1 4-3-2-3 9 1-3-3h-2v-2l4-4-6 1-7 5-4 2 1 5-6 2-1-4-5-2v5h2l-1 3 4-1h6l-4 2-3 1 1 4 6-2-1 3 6-2h7v3l8 1v1h-8l-2-1v-2l-4 1 2 2-1 1h-24l-1-3v-26l3-3h2v-2l-5 3 1-5 5-3 7-8 7-6h2v-3l-13 12-6 7h-2l-1-7z" fill="#82E7D6"/>
<path transform="translate(500,439)" d="m0 0h44l27 4 17 5 13 5 16 9 9 7 10 9 7 7 10 15 9 17 7 18 6 21 2 8 1 8v33l-2 25v22l3 19 3 9h2l7 9 7 7 15 7 5 2-3 1-8-3-4-2v2h2v2l6 2 20 10-2 1-5-1-2 3-3-3v-2l-4 1 15 10-3-6 4 2 6 7 3 1 1-3v6l-5-1-4-1h-3l-4-2-13-8-8-6-8-7v-2h-2l-8-11-5-10-9-20-12-23-12-21-2-5 4 4 6 10 12 21 2 4-3-10-5-13h3l4 7-1-5-1-3-3-3-3-10-1-5 4 5 3 5v3l1-2h2l1-17-2-2 1-7 2-2 1-9-2-8-4-20-4-15-6-17-11-19-11-14-10-10-18-13 2-1 16 11 12 11 10 13 9 15 6 13 6 19 4 16 3 16v-8l-4-23-4-14-4-13-11-23-8-12-9-11-11-10-15-10-16-8-20-6-16-3-25-2h-24l-31 3-28 4-24 5-7 1 3-2 21-5 32-5z" fill="#060505"/>
<path transform="translate(654,954)" d="m0 0h2v2h9v7h7v3l-6 5-7 8-10 12-11 14-11 12-3 2-7-8-3-5-1-1v-5l3-1 2-4 18-18-7 6-13 13-1 2-4 1-4-5 1-4 14-14-8 6-6 7h-4l-1-4h2v-6l4-5 9-5h2v-2l-3 2h-3v2h-3v2l-3-1 2-4 3-3 5-1 9-1h24l7 1-4-6z" fill="#DEECE8"/>
<path transform="translate(861,837)" d="m0 0h11l8 1 10 5 8 6v3h3l1 9-9 14-11 13-12 12 4-2-2 6v2l-4 2-4-2-4-1v-43-2-17z" fill="#73E7DA"/>
<path transform="translate(894,746)" d="m0 0h8l17 3 8 7 6 7 4 3-1 9 2 5v3l1 4v8l-1 5 2 6-1 11v6l-5 2v2h-2l2 5-7-6-6-6v-3l5-1-1-6-10-2-1-5 4-3-4-7-4-11-2-3-2-5-2-6-2-5-2-1-3-3v-3l-4-1-2-2 1-5z" fill="#A0E7B4"/>
<path transform="translate(579,955)" d="m0 0 10 2-3 1v5l4 1 11-5h3v-2l4 1 4 4v1h10l-4 1-1 2-6 1-1 4-1 1 2 1v-2h3v-2l6-2v2l-8 5h-3l-2 4-2 7h-2l1 4h4l2-4 7-7 6-4 2 1-13 12-4 4 1 5 3 2h3l2-4 18-18 2 1-23 23v5l3 3 3 6 5 4 5-4-2 4-2 3 4 3 4 1v-2l2 1-2 5 7 2 1 3 10-1 10-7 8-8v3l-9 9-9 6h-11l-8-6-2-2-3 3h-2l-1 3-5 1-2 1-14 1 3-2 4-1h8l-1-3-3-2v-2l-4-1-4-3-1-3h4v3h2l1 2h6l2-2-1-5-5-6-3-5-6 3-2 3-2-1 2-5-1-8h-2l-6 7-2 2v-5l-5-4h-2l-1-2h-2l-3 5h-3l-1-6 1-2h3v-3l-4 2 1-6-4-5-2-1-1 3-2-1 2-5v-2l-4-2-2-3 5-4 12-6 1-3h-2z" fill="#70D3C4"/>
<path transform="translate(1088,871)" d="m0 0h2l4 56 3 37-1 4-4-1-3-3-1-2-5-3-4-9-4-1h-2l-5 4h-2l-1-4-3 5-4 2 12-36 9-25 7-20z" fill="#DDFBB4"/>
<path transform="translate(564,900)" d="m0 0 4 4 12 16 11 14 10 13 6 8v2h-3v2l-14 6-5-2 1-5-6-2v2h2l-1 4-5 3-7 3-4 3-1 3-2-1v-2l-5-4 1-4h6z" fill="#71E2D7"/>
<path transform="translate(527,809)" d="m0 0h1v126l-6 1h-10l-11-2v-2h-5l-2-5-3-1-1-5 3-8 4-5 4-1 2-4 4-4 5-2 2-3 7-1 1-3 3 17v-6l-1-3-2-24v-12h-2v-10h3l3 4z" fill="#71E5DB"/>
<path transform="translate(548,1016)" d="m0 0 2 2 4 1-1 7h2l1-4 6 2v4l-6 9v2l10 2v-2l-8-1 2-4 5-7 5 2 1 3-1 4 4-4 7 1-2 4-4 7-13 6-18 8-14 8-9 5-7 6-10 6-8 6-6 4-14 11-5 4-2-1 13-11 10-8 7-4 7-6 2-8h3v-2l5-5 4-1v-3l4-4 5-8h4l-2-4 4-6 1-5 5 1 4 2-1 4 3-3 1-3-7-1-1-3 2-5h2l2-6z" fill="#AAE8D6"/>
<path transform="translate(578,991)" d="m0 0h2v3h-3v8l4-2 2-4 3 1v2l3-1 5 6v1l8-8 2 2 1 8-2 5 6-5 3-1 3 3 4 7 3 3-1 5-2 2h-6l-1-3h-2l-2-2v2l7 4 5 5-1 2-12 2-3 1h-9v-3h-9v-3h2l2-4v-1l-4 2-2 4-7-1 1-4 6-8 1-2-5-2-3-3 1-4-4 1-6-4v-3l4-4 1-2h2l2-4z" fill="#7CD2B7"/>
<path transform="translate(564,833)" d="m0 0h10l13 2 6 4 5 8 1 10-3 9-4 5-7 3-6 1h-15z" fill="#76E8DC"/>
<path transform="translate(996,772)" d="m0 0 6 2 4 7v4l5 1 1 8v2h2v3l-4 1-1 5h-36l-3-2 1-1-2-10-3-5 4-1v-2l3-2 7-4v-1h6v-2l4-2h5z" fill="#BFF7A1"/>
<path transform="translate(416,816)" d="m0 0 1 2-4 8-6 18v14l5 16 7 14 9 12 11 12 13 9 19 10 21 7 7-1 1-3-5-1-11-2-15-6-10-6-10-8-8-9-10-16-7-18-2-14 3-17 3-7 1 4-3 9-1 5v9l4 16 6 14 10 15 8 9 13 9 13 6 16 4 6 2v2l11 1h16v14l-5 1-42-12-17-7-11-6-13-9-15-15-8-11-8-15-4-13-1-5v-11l4-15z" fill="#7AE8DC"/>
<path transform="translate(739,1146)" d="m0 0h21l6 3 4 5 1 9-3 6-4 3h-2l4 7 5 7-4 1-5-5-4-7-15-1v13l-5-1v-27z" fill="#010000"/>
<path transform="translate(1184,1146)" d="m0 0h21l8 4 3 5v10l-6 7h-2l3 6 5 7v2l-5-1-8-11-14-1v12l-5 1z" fill="#010000"/>
<path transform="translate(487,1150)" d="m0 0h12l7 5 3 6v12l-4 6-7 4h-12l-6-4-4-6-1-9 3-7 5-5z" fill="#F9FCFB"/>
<path transform="translate(822,888)" d="m0 0h2v41l-20 9h-3v-7-2-18-2-8l5-4z" fill="#71BEA5"/>
<path transform="translate(693,963)" d="m0 0 5 1-3 28-3 14-6 13h-2l-2 5h-2l-2 5-8 5-7 3-10 1-9-1v-1l8-1 11-8 7-7 3-4 3-8 3-4h2l1-10h3l5-25v-5z" fill="#CEDFDA"/>
<path transform="translate(676,963)" d="m0 0 5 1-2 5-12 16-8 14-4 4-1 2h-2l-2 4-8 10-4 4h-4v2l-6-1-3-4 4-4 3-5 11-13 13-17 8-8 6-7z" fill="#BBC9C4"/>
<path transform="translate(715,929)" d="m0 0 2 1 1 3 8-4 3 1-4 2 3 1v2l12-5 2 1-4 1v2l6 2-1 2-4 2 1 6 12 2-5-3-1-3 5 2 3 1 7 10-1 5-6-2-7-2-13-2v-1h17l1-1-15-5-4 1-1 2-5-1 4-3-2-3 9 1-3-3h-2v-2l4-4-6 1-7 5-4 2 1 5-6 2-1-4-5-2v5h2l-1 3 4-1h6l-4 2-3 1 1 4 6-2-1 3 6-2h7v3l8 1v1h-8l-2-1v-2l-4 1 2 2-1 1h-24l-1-3v-26l2 1 2-3h2v2l4-2z" fill="#9DE8D5"/>
<path transform="translate(386,927)" d="m0 0 5 2 16 13 11 11 10 14 12 21 10 18 9 13 8 10 14 14 14 8 15 5 3-1 2-6h2l1-7-5-1-4-2v-2l5 1 7 3v2h8l6-11 2 2-4 8v4l2 2h-6l-6 10-3 1v3l-2-1 1-2h-7l-2 5-2-1 2-5-7-1-13-5-13-9-15-15-10-13-13-23-9-16-11-17-12-13-7-7-13-10zm114 76 4 2 16 13 10 6 1-2 1 4 7 1 1-3h2l-1 7 8 1-2 6-4 2 2-5-9-3-3-3-4-1-2 4-1-4 1-3-5-2-7-5v-2l-5-2-10-9z" fill="#84DDC0"/>
<path transform="translate(624,963)" d="m0 0h27l7 1v1l-8 2-7 4-11 9-16 16-1 2-4 1-4-5 1-4 14-14-8 6-6 7h-4l-1-4h2v-6l4-5 9-5h2v-2l-3 2h-3v2h-3v2l-3-1 2-4 3-3 5-1z" fill="#E8F9F5"/>
<path transform="translate(681,963)" d="m0 0 8 1-3 2h-2l-1 6-5 12-9 17-8 11-12 13-8 7-5-2-2-1 1-5 9-8 8-11h2l2-5 3-1 2-6 8-12 9-12z" fill="#ECF9F5"/>
<path transform="translate(643,1145)" d="m0 0 3 2 10 30 1 2 4-10 7-21 3-3 2 1-3 11-10 29-5 1-4-9-8-23-2 3-9 27-1 2h-5l-5-14-8-25v-2h4l5 14 6 19 2-2 10-30z" fill="#010000"/>
<path transform="translate(897,852)" d="m0 0h4l1 9-9 14-11 13-12 12 4-2-2 6v2l-4 2-4-2-4-1v-21h1v8l5-3 11-11 2-4 4-5 5-5z" fill="#6DD4C6"/>
<path transform="translate(822,857)" d="m0 0h2v8 2 10l-1 1h1v8l-17 10-6 2v-8-2-9l4-3-4 1v-7l3-3z" fill="#78E7D7"/>
<path transform="translate(702,1145)" d="m0 0 4 2 7 14 11 24v2l-5-1-5-9h-22l-5 10h-4l1-5 9-19 7-16z" fill="#010000"/>
<path transform="translate(611,1006)" d="m0 0 4 3 4 7 3 3-1 5-2 2h-6l-1-3h-2l-2-2v2l7 4 5 5-1 2-12 2-3 1h-9v-3h-9v-3h2l2-4 7-10h2v-4l5-1 5-5z" fill="#74C3AA"/>
<path transform="translate(702,865)" d="m0 0 4 5 11 17 6 9-2 4-8 8-2 3h-2l-2 9 2 1-4 5h-2l-1-7z" fill="#82DFC7"/>
<path transform="translate(550,992)" d="m0 0 2 1v4h-2v2h-2l1 3h4v4l3-5h2v-2l5 2 2 2-1 6-1 2 6-3 4 2 1 4 4 1 2 1v2h2v3l-7 7-6-1-2-3h-4l-4-2-1-4-5-1-4-4-4-1-5-4v-3h2v-3h2l1-5h2l1-4z" fill="#E3F8F3"/>
<path transform="translate(861,837)" d="m0 0h11l8 1 10 5-6 7-7 6-2 4-8 7-4 5h-2l-1-2v-8-2-17z" fill="#76E7D8"/>
<path transform="translate(950,878)" d="m0 0h1l1 12h2l1 5-1 4 1 2h-2l2 5 4-6 4 2-1 18-4 40-2 6-3-1v-10l1-3-2-5 1-10 1-7h-3l-4-4v-8l3-9z" fill="#A0E7B4"/>
<path transform="translate(904,1145)" d="m0 0 5 3 13 16 10 13 1-31h4l1 2v39l-5-1-11-13-13-17-1 31h-5v-41z" fill="#010000"/>
<path transform="translate(665,963)" d="m0 0h7v3l-6 5-7 8-10 12-11 14-11 12-3 2-6-6v-2l10-10 3-5 8-7 12-12 4-5 4-1 2-3 4-2z" fill="#EEFAF6"/>
<path transform="translate(566,839)" d="m0 0 3 2 9-1 8 6 4 8-1 8h-2l-2 4-3 2-7 1-6-3-1-3-2 1-1-21z" fill="#F9FCFB"/>
<path transform="translate(1036,1146)" d="m0 0 5 1 13 16 10 13v2h2v-32h4l1 41-6-1-10-13-12-15-1-2-1 31h-5z" fill="#010000"/>
<path transform="translate(579,955)" d="m0 0 10 2-3 1v5l4 1 4-2 3 1-4 1-1 3 2 3 7-1-3 3-8 7-7 7h-2l-2 5-3 2 1-6-4-5-2-1-1 3-2-1 2-5v-2l-4-2-2-3 5-4 12-6 1-3h-2z" fill="#6DC9BD"/>
<path transform="translate(901,854)" d="m0 0 4 4 5 13 1 6v14l-1 6h-2l-1-5 1-1v-16h-2v-2h-2l-1-3-9 14-14 17-7 7-12 9h-1v-10l1-2h5v2l6-1-1-3 1-3-3 1 2-4 8-7 11-12 10-15 1-5z" fill="#76E5D5"/>
<path transform="translate(486,1146)" d="m0 0h12l7 3 3 2v2h2l3 5 1 4v10l-3 6-5 5-4 3-3 1h-13l-8-4-6-8-1-4v-9l4-9 6-5zm1 4-8 5-3 5-1 7 2 8 5 6 4 2h12l7-4 4-6v-12l-4-7-6-4z" fill="#010000"/>
<path transform="translate(635,976)" d="m0 0 2 1-23 23v5l3 3 3 6 5 4 5-4-2 4-2 3 4 3 4 1v-2l2 1-2 5 7 2 1 3 10-1 10-7 8-8v3l-9 9-9 6h-11l-8-6-2-2-3 3h-2l-1 3-5 1-2 1-14 1 3-2 4-1h8l-1-3-3-2v-2l-4-1-4-3-1-3h4v3h2l1 2h6l2-2-1-5-5-6-3-5-6 3-2 3-2-1 2-5-1-8h-2l-6 7-2 2v-6l5-3 6-7 1-2h2l3 7 5 1 2-4z" fill="#34564A"/>
<path transform="translate(397,813)" d="m0 0 2 2-4 8-4 12-1 7v15l3 13 8 15 10 13 11 11 10 8 16 10 22 12 45 22 14 9 13 10 3 2v2l-5-2-10-8-16-10-17-9-24-11-22-12-17-10-16-13-13-13-9-14-7-14-2-11v-12l2-14 4-10z" fill="#86E0C3"/>
<path transform="translate(1091,1146)" d="m0 0h29l-1 4h-23l1 14h20v4h-21v15h24v4h-29z" fill="#010000"/>
<path transform="translate(788,1146)" d="m0 0h28l-1 4h-22l1 14h19l1 4h-21v15h24v4h-29z" fill="#010000"/>
<path transform="translate(379,932)" d="m0 0 5 2 12 11 9 10 9 16 8 18 10 25 8 16 8 11 9 10 12 9 11 5 13 3 11 1 4-5-1 4-7 11-7 7v-3l5-6h2l1-5-14-2-15-5-11-7-14-13-8-11-8-14-10-25-10-23-6-11-10-14-10-9-6-5z" fill="#7ED2B6"/>
<path transform="translate(500,439)" d="m0 0h44l27 4 17 5 13 5 16 9 9 7 10 9 7 7 10 15 9 17 7 18 2 7-1 4-4-10-3-10-11-23-8-12-9-11-11-10-15-10-16-8-20-6-16-3-25-2h-24l-31 3-28 4-24 5-7 1 3-2 21-5 32-5z" fill="#010000"/>
<path transform="translate(665,569)" d="m0 0 1 3v6l3 1 3 3 2 6-1 8-3 5 2 10-2 13h-2l-2 4v-5l-4-6-1-7-2-1 3-1 1-4 2-5 1-1v-7l-1-2-4 4 2-7h-2l-1 4h-6l-2 1 2-6 7-10z" fill="#C2C6C5"/>
<path transform="translate(857,1146)" d="m0 0h28l-1 4-22 1v13h20l1 4-21 1v13l23 1 1 4h-29z" fill="#010000"/>
<path transform="translate(562 1e3)" d="m0 0 4 1 2 1v3l5 2h4l2 2v4l6 4-2 5-5 6-1 3h7l5-5 4-2-5 7h-2v3h9v3h9v1l-20 4-7 1 2-2 7-2h5v-2l-5-1-3-1-4 4-2-1 4-5h-7l-4 4-2-1 2-6-5-2-7 10 8 1v2l-10-1-2-2 6-8 2-5-6-2-1 3h-2l1-7-4 1-2-2-2 1-2 5h-2l2-7-1-5-1-2 7 2 1-2 1 5 7 3 1-2v6l7 2 2-1 1 3 6 1 5-6h2v-3h-2v-2l-6-2-3-5-9 3 2-5-1-5z" fill="#5E9E8A"/>
<path transform="translate(1138,1146)" d="m0 0h28l-1 4h-23l1 14h19l2 1-1 3h-21v15h24v4h-28l-1-37z" fill="#010000"/>
<path transform="translate(970,1146)" d="m0 0h13l6 3 3 3v2l-9-3h-12l-7 4-3 5v13l4 6 5 3h13l4-3 1-13h3l1 2v11l-3 5-6 3h-13l-8-4-6-8-1-4v-9l4-9 8-6z" fill="#010000"/>
<path transform="translate(743,1150)" d="m0 0h16l5 3 2 3v9l-5 4-3 1h-15z" fill="#F7FCFA"/>
<path transform="translate(548,1016)" d="m0 0 2 2 4 1-1 7h2l1-4 6 2v4l-6 9v2l5 1-4 7-17 1 1-5 6-7 1-3-7-1-1-3 2-5h2l2-6z" fill="#E1EDEA"/>
<path transform="translate(1189,1150)" d="m0 0h15l6 3 2 4v6l-2 4-6 3h-15z" fill="#F8FCFB"/>
<path transform="translate(376,942)" d="m0 0 4 2 9 10 6 9 7 16 5 15 8 29 8 20 6 10 9 11 12 9 11 5 11 3 20 1-2 2h-15l-14-3-9-4-10-6-10-9-10-14-8-18-6-20-8-27-6-15-6-11-9-11z" fill="#84DEC0"/>
<path transform="translate(853,700)" d="m0 0 4 2 7 8 15 30 10 19 11 20 10 17 5 13-1 3-8-16-8-13-5-7-3-6-8-5-4-4v-6l8 8-8-14-8-16v-3l-5-13-7-11z" fill="#010000"/>
<path transform="translate(359,954)" d="m0 0 5 5 5 10 5 16 2 9 6 49 4 19 5 13 8 12 4 5 8 6 8 5 16 4h14l12-1v2l-13 2h-14l-12-3-12-6-10-9-8-10-7-14-4-14-3-19-4-35-5-23-5-12v-3h-2l-3-6z" fill="#85DFC1"/>
<path transform="translate(438,1146)" d="m0 0h11l5 2 2 3-2 1-4-1h-13l-3 3 1 7 7 3 10 3 5 4 1 2v6l-6 7-7 2-9-1-8-4v-3l5 1 3 1h13l4-4-2-6-18-6-4-4-1-5 3-7 3-3z" fill="#010000"/>
<path transform="translate(416,816)" d="m0 0 1 2-4 8-6 18v14l5 16 7 14 9 12 11 12 13 9 19 10 27 9 25 7 1 2-8-1-35-10-17-7-11-6-13-9-15-15-8-11-8-15-4-13-1-5v-11l4-15z" fill="#86E1C4"/>
<path transform="translate(374,955)" d="m0 0 4 3 7 15 4 13 6 31 5 23 7 19 7 12 9 10 11 7 9 4 9 2h18l9-2 6-1-3 3-16 3h-11l-16-4-12-6-12-11-6-8-8-16-5-16-9-44-5-18-8-17z" fill="#87E1C3"/>
<path transform="translate(822,888)" d="m0 0h2v31h-4v2l-6 1 3-4v-3h-2v-2h4l-1-5h-2l-1-5-2 2-8 2-1 2h-3v-8l5-4zm-3 21 2 2v-2z" fill="#87E1C3"/>
<path transform="translate(823,838)" d="m0 0h1v18l-20 10h-3l1-7 8-5-9 3v-6l3-3z" fill="#6FD7C8"/>
<path transform="translate(531,1146)" d="m0 0h28l-1 4h-17l-5 1 1 14 19 1 1 3-1 1h-20v17l-5-1z" fill="#010000"/>
<path transform="translate(723,899)" d="m0 0 3 1 5 10-12 9-7 6-1 2 8-7h2l1 4-8 7-4 4-3-1 1-2-5 4 1-4 3-1v-2l-5 3 1-5 5-3 7-8 7-6h2v-3l-13 12-5 2 2-6 9-9 2-3h2z" fill="#D0F2E6"/>
<path transform="translate(554,1051)" d="m0 0h2v2l-10 4-11 6-15 9-6 5-10 6-8 6-6 4-14 11-5 4-2-1 13-11 10-8 7-4 7-6 2-8h3v-2l5-5 2-1-2 4-1 3 7-2 2-5 4-5 6-5-1 4h9z" fill="#738B83"/>
<path transform="translate(371,827)" d="m0 0 1 4-1 8v17l4 14 9 15 14 15 13 12 10 7v2l5 2 17 11 2 1v2l5 1 3 4-5-1-27-18-12-9-14-12-10-10-10-15-5-11-2-9v-14l2-14z" fill="#84DDBF"/>
<path transform="translate(639,967)" d="m0 0m-3 1 7 1-1 3-10 8-16 16-1 2-4 1-4-5 1-4 12-12 10-7z" fill="#EEFAF7"/>
<path transform="translate(715,929)" d="m0 0 2 1 1 3 8-4 3 1-4 2 3 1v2l12-5 2 1-4 1v2l6 2-1 2-4 2 1 6 12 2-5-3-1-3 5 2 3 1 7 10-1 5-6-2-7-2-13-2v-1h17l1-1-15-5-4 1-1 2-5-1 4-3-2-3 9 1-3-3h-2v-2l4-4-6 1-3 2-4-1h2v-2l-5 2-7 1 1-4-5 3-3 3-2-1z" fill="#87C8B3"/>
<path transform="translate(330,839)" d="m0 0h1l2 17 5 12 3 5 1 4h2l8 11 10 9 6 4v2l5 2 3 3 17 12 19 13 11 9v3l-6-4-14-11-15-10-14-10-15-11-4-5-5-5-5-4-10-16-4-10-1-6z" fill="#87DFC2"/>
<path transform="translate(569,1146)" d="m0 0h33l-2 4h-12v37h-5l-1-37h-13z" fill="#010000"/>
<path transform="translate(565,945)" d="m0 0m-1 1 10 6v2l5 1 1 3h2l-1 4-5 3-7 3-4 3-1 3-2-1v-2l-5-4 1-4h6z" fill="#72DBCD"/>
<path transform="translate(428,830)" d="m0 0 1 4-3 9-1 5v9l4 16 6 14 10 15 8 9 13 9 13 6 16 4 6 2v1l-14-1-16-6-11-6-11-9-8-9-10-16-7-18-2-14 3-17z" fill="#86E0C3"/>
<path transform="translate(569,1008)" d="m0 0 4 2 1 4 4 1 2 1v2h2v3l-7 7-6-1-2-3h-4l-4-2-1-3 3-7z" fill="#D2E6E0"/>
<path transform="translate(733,934)" d="m0 0 5 1-3 4h-2v2l3-1 2 4h-8l2 3-2 2 2 1 1-3 4-1 15 5 2 2-5 1h-15l-2 2-4-4-9-3v-3-2l-2-2 8-3z" fill="#7CD5BF"/>
<path transform="translate(822,857)" d="m0 0h2v8 2 10l-5 2-4-1 2-1-1-7-13 7h-2v-7l3-3z" fill="#75E1D1"/>
<path transform="translate(861,837)" d="m0 0h11l8 1v3l-5 5-3 1-2 4-7 7-1 2h-2v-17z" fill="#7DE5D0"/>
<path transform="translate(536,1032)" d="m0 0 5 1 4 2-1 4-4 4-1 3h-2l-2 5-5 6-5 5-3 5-3 2h-4l1-4 2-3h2v-3l4-4 5-8h4l-2-4 4-6z" fill="#E6F8F1"/>
<path transform="translate(888,844)" d="m0 0 5 1-2 4-5 6-5 5-10 12-5 5-5 3v-8l12-12 2-1 2-4 8-7z" fill="#72E8DC"/>
<path transform="translate(571,981)" d="m0 0 4 2 3 4-1 4-2 5h-2l-2 5-5 1-6-4-1-4 3-5 5-5 3-1z" fill="#78D5C9"/>
<path transform="translate(347,959)" d="m0 0 4 2 5 10 4 15 3 22 2 44 4 24 5 14 3 4-1 3-4-6-6-17-3-17-1-18-1-27-4-28-5-15-4-8z" fill="#88E1C3"/>
<path transform="translate(404,920)" d="m0 0 5 2 18 12 9 7 10 8 11 9v2l4 2 35 35 2 1-1 3-8-7-35-35-11-9-13-11-17-12-9-6z" fill="#84DDC0"/>
<path transform="translate(607,470)" d="m0 0 5 2 14 10 10 9 8 10 10 15 8 17 6 19 4 16 1 12-2-1-4-20-4-15-6-17-11-19-11-14-10-10-18-13z" fill="#010000"/>
<path transform="translate(611,1006)" d="m0 0 4 3 4 7 3 3-1 5-2 2h-6l-1-3h-2l-2-2-6-5v-3l7-6z" fill="#F0FAF7"/>
<path transform="translate(809,690)" d="m0 0h16l-3 2 1 3-3 1v3l3 1v1l-7 1-3-1-9-1v-2l6-1v-3l-10 2h-2l-1 2v-2l-8 2-4-1 1-2 14-4z" fill="#E1F4EC"/>
<path transform="translate(706,809)" d="m0 0 4 2 8 12 5 8v2h2l5 9 3 4 2 4v4h2v3l2 1 8 8v2h-5l-11-17-14-22-11-17z" fill="#88EADE"/>
<path transform="translate(500 1e3)" d="m0 0 4 2 16 13 10 6 1-2 1 4 7 1 1-3h2l-1 7 8 1-2 6-4 2 2-5-9-3-3-3-4-1-2 4-1-4 1-3-5-2-7-5v-2l-5-2-10-9zm35 29 2 2-4 8v4l2 2h-6l-3 3 1-6h2l2-6z" fill="#538A77"/>
<path transform="translate(595,973)" d="m0 0 12 1-1 3-6 3-2-1-1 5-7 8-2 3-4-2-3-4v-3l8-7 4-4h2z" fill="#82E7DD"/>
<path transform="translate(564,972)" d="m0 0 6 4 1 4-7 9-2 2-3 4-4-2-4-3v-3l3-3 8-10h2z" fill="#79E8DC"/>
<path transform="translate(602,997)" d="m0 0 2 2 1 8-2 5-4 1v4l-5 5h-3l-3-2h-2l1-4 7-9 2-4z" fill="#D6F6EF"/>
<path transform="translate(702,1152)" d="m0 0h2l8 17v3l-14 1h-4l1-5 6-15z" fill="#F8FCFA"/>
<path transform="translate(654,954)" d="m0 0h2v2h9l1 11-5 2-2 3-7 2-8 7-5 5-1-3 4-3 1-4-1-2 3-3 5-1 3-3 5-1-3-7z" fill="#EBF9F4"/>
<path transform="translate(1011,1146)" d="m0 0h5v41h-5z" fill="#010000"/>
<path transform="translate(439,1031)" d="m0 0h2l7 10 9 10 12 9 11 5 13 3 11 1 4-5-1 4-7 11-7 7v-3l5-6h2l1-5-14-2-15-5-11-7-14-13-8-11z" fill="#7ED3B7"/>
<path transform="translate(623,974)" d="m0 0 2 1-13 12-5 4-2-1-2 5-7 7-5-1-3-3 2-4 4-5h2l1-3 4-1v3l7 1 2-4 7-7z" fill="#7CE8DA"/>
<path transform="translate(354,814)" d="m0 0h1l-1 8-2 11v25l5 13 7 11 9 10 13 13 10 8 8 6h-3l-11-8-10-9-8-7-9-10-8-13-5-12-1-9v-13l3-17z" fill="#87E1C3"/>
<path transform="translate(670,596)" d="m0 0 1 2-1 7 2 3-1 13-1 3h-2l-2 4v-5l-4-6-1-7-2-1 3-1 1-4z" fill="#F6FBF9"/>
<path transform="translate(822,930)" d="m0 0h2v8l-5 3-14 6h-4v-6l6-4z" fill="#86E3C9"/>
<path transform="translate(359,954)" d="m0 0 5 5 5 10 5 16 2 9 6 49v6l-2-1-4-31-3-23-5-20-4-9v-3h-2l-3-6z" fill="#87E1C3"/>
<path transform="translate(822,921)" d="m0 0h1l1 8-20 9h-3v-7l7-4 6-1v-2z" fill="#79E7D9"/>
<path transform="translate(817,891)" d="m0 0 1 3 1 5h3v2l-6 2h-2l-1 2-8 2-1 2h-3v-8l5-4z" fill="#7ED2B7"/>
<path transform="translate(607,1024)" d="m0 0 4 1 4 2 5 5-1 2-12 2-3 1h-9l2-5 6-4z" fill="#EEFAF6"/>
<path transform="translate(512,1058)" d="m0 0 7 1-2 4-4 5h-2v2h-3l-1 8-12 10-5 2 1-4 8-7 7-11 2-4h2l1-5z" fill="#D6EFE7"/>
<path transform="translate(586,968)" d="m0 0 5 1 2 5-11 11h-4v-2h-2l-2-3v-3l7-4z" fill="#7FEADE"/>
<path transform="translate(660,623)" d="m0 0h3l2 7 3 1 2 5v5l-3-4-2-5-2 1 8 20-1 4-4-8-9-16-2-5 3-3h2z" fill="#E6F1EC"/>
<path transform="translate(823,838)" d="m0 0h1v8h-4v2l-17 9h-2v-6l3-3z" fill="#77E6D5"/>
<path transform="translate(548,1034)" d="m0 0 7 3 1 2 5 1-4 7-17 1 1-5 6-7z" fill="#83E2C6"/>
<path transform="translate(739,925)" d="m0 0 3 1 10 16 1 4-6-3v2l5 2 1 2-10-2-3-1-2-8 5-1-4-2-1-3 3-1v-4l-3-1z" fill="#A0E8D3"/>
<path transform="translate(635,976)" d="m0 0 2 1-24 24-4-1v6h-3l-1 2-1-5-2-5-7 7-1 3-1-4v-2l5-3 6-7 1-2h2l3 7 5 1 2-4z" fill="#4C8B83"/>
<path transform="translate(538,1009)" d="m0 0 5 2 2 2-1 7-2 4h-2l-1 4-7-1-1-5h2l2-6z" fill="#F0FAF7"/>
<path transform="translate(604,957)" d="m0 0 4 1 4 4-4 4h-2l-1 3-11 2-3-5h2v-2l4-1v-2l4-2h3z" fill="#60B7AB"/>
<path transform="translate(509,1037)" d="m0 0 5 1 7 3v2l8 1-2 1-2 7-3 5-7-1v-7h2l1-7-5-1-4-2z" fill="#D7EBE4"/>
<path transform="translate(893,846)" d="m0 0 3 2-8 7-4 7-2 5-4 1-4 5h-2l-1 3h-2l-1 3-5 4-3-1v-9h1l1 6 7-5 6-8 9-11 5-4z" fill="#7DD1B6"/>
<path transform="translate(529,1027)" d="m0 0 5 2 2 3-6 11-1 1-8-1 1-7 5-5z" fill="#DFEAE6"/>
<path transform="translate(570,834)" d="m0 0h13l8 3 5 6 1 7-2-2v-3l-4-2-7-2-13-2-4-1 1-3 2 1z" fill="#EEFAF6"/>
<path transform="translate(591,1024)" d="m0 0 2 1-5 6h-2v3h9v3h9v1l-20 4-7 1 2-2 7-2h5v-2l-5-1-3-1-4 4-2-1 4-5h-7l-4 4-2-1 4-7 12 2 5-5z" fill="#467566"/>
<path transform="translate(733,934)" d="m0 0 5 1-3 4h-2v2l3-1 2 4h-8l2 3-7 1v-2l-3-1-3 1v-2l-2-2 8-3z" fill="#B2E6DA"/>
<path transform="translate(550,992)" d="m0 0 2 1v4h-2v2h-2l1 3h4l-1 8h-3v2l-5-1-4-3v-3h2v-3h2l1-5h2l1-4z" fill="#E1F3ED"/>
<path transform="translate(594,962)" d="m0 0 3 1-4 1-1 3 2 3 7-1-3 3-8 7-7 7h-2l-2 5-3 2 1-6-4-5-2-1-1 3-2-1 2-5v-2l4 1 2 6h2v2l5-2 9-9-2-5h-6l4-4z" fill="#487C6D"/>
<path transform="translate(477,1041)" d="m0 0 4 2 14 8 15 5 3-1 2-3v4l7 1 2-5 2-1-2 6-4 2v3l-2-1 1-2h-7l-2 5-2-1 2-5-7-1-13-5-13-9z" fill="#75C3A9"/>
<path transform="translate(815,869)" d="m0 0 3 1h-2l2 7-1 1 2 2h-2v2l-4 1-1 5-3 1-1-5h2l-1-2-1-3h-2l2-6z" fill="#6CB49C"/>
<path transform="translate(665,569)" d="m0 0 1 3-1 8-1 4 1 3-3 6-1-2 2-5h-2l-1 4h-6l-2 1 2-6 7-10z" fill="#8A9791"/>
<path transform="translate(603,951)" d="m0 0 4 4v2h-3v2l-14 6-5-2 1-5 9-2 6-3z" fill="#7DE5D6"/>
<path transform="translate(492,950)" d="m0 0 19 9 18 11 13 10 3 2v2l-5-2-10-8-16-10-17-9-6-3z" fill="#84DCBF"/>
<path transform="translate(664,805)" d="m0 0h1v57h-1v-32l-3-1-1-5 1-13z" fill="#F7FCFB"/>
<path transform="translate(762,870)" d="m0 0h3v8l-10 6h-3l-2-3 1-4z" fill="#78E7D8"/>
<path transform="translate(537,1049)" d="m0 0h20l-3 1v2l-12 5-9-1 1-4h2z" fill="#EAF9F4"/>
<path transform="translate(578,991)" d="m0 0h2v3h-3v8l4-2 2-4 3 1-6 7-4 5-5-2-3-2v-3l4-4 1-2h2l2-4z" fill="#FAFDFC"/>
<path transform="translate(730,911)" d="m0 0 4 2 3 6-2 1-1-4-3 2v3l-12 8-2-1 3-4h2l-2-5 8-6z" fill="#6DBAAD"/>
<path transform="translate(556,1022)" d="m0 0 6 2v4l-6 9-7-2 1-4 1-2h2v-3h2z" fill="#EFFAF7"/>
<path transform="translate(708,899)" d="m0 0v3l-2 2-1 5 2 1v-2l3 1-3 10 2 2-4 5h-2l-1-7v-13l1-5 4-1z" fill="#7AE5D2"/>
<path transform="translate(585 1e3)" d="m0 0 2 3 1 2h4l-2 4-3 3-2 4-5-2-3-3 2-4z" fill="#F7FCFA"/>
<path transform="translate(615,1013)" d="m0 0 3 1 4 5-1 5-2 2h-6l-1-3h-2l-1-4z" fill="#D9F5EB"/>
<path transform="translate(814,902)" d="m0 0 2 1v5h2l1 5-7 3-4 1v-5l-3-6 8-1zm-7 5m-3 0m15 2h2l-1 2z" fill="#6BB49D"/>
<path transform="translate(875,839)" d="m0 0h6l-6 7-3 1-2 4-7 7-1 2h-2v-7l8-7z" fill="#76E7D9"/>
<path transform="translate(536,1032)" d="m0 0 5 1 4 2-1 4-4 4-1 3-3 1-5-2 2-5 3-7z" fill="#F0FAF7"/>
<path transform="translate(574,1014)" d="m0 0 4 1 2 1v2h2v3l-7 7-6-1-1-4 5-6z" fill="#F6FCFA"/>
<path transform="translate(411,913)" d="m0 0 4 2 6 4v2l5 2 17 11 2 1v2l5 1 3 4-5-1-27-18-10-7z" fill="#65A992"/>
<path transform="translate(438,1065)" d="m0 0 9 6 14 7 11 3 20 1-2 2h-15l-14-3-9-4-10-6-5-5z" fill="#87E1C3"/>
<path transform="translate(709,944)" d="m0 0 5 1 2 4 3-1 4 2 2 6-11 2-1-4 5-2-9 1v-3l-1-3z" fill="#D4F3E9"/>
<path transform="translate(715,929)" d="m0 0 2 1 1 3 8-4 3 1-4 2 3 1v2l12-5 2 1-14 7-4-1h2v-2l-5 2-7 1 1-4-5 3-3 3-2-1z" fill="#34635E"/>
<path transform="translate(463,965)" d="m0 0 7 6 26 26 2 1-1 3-8-7-27-27z" fill="#86E1C3"/>
<path transform="translate(594,1008)" d="m0 0h2l3 5v4l-5 5h-3l-3-2h-2l1-4z" fill="#F5FCFA"/>
<path transform="translate(562 1e3)" d="m0 0 4 1 2 1v3l5 2h4l2 2v4l6 4-2 5-3-1h2v-3h-2v-2l-6-2-3-5-9 3 2-5-1-5z" fill="#6CAB98"/>
<path transform="translate(723,899)" d="m0 0 3 1v3l-5 1 1 3-11 12-5 2 2-6 9-9 2-3h2z" fill="#C8F1E4"/>
<path transform="translate(421,989)" d="m0 0 2 3 9 22 8 17h-3l-8-16-8-20-1-5z" fill="#84DEC1"/>
<path transform="translate(411,1099)" d="m0 0 5 2 9 4 10 2h14l12-1v2l-13 2h-14l-12-3-12-6z" fill="#7DCFB3"/>
<path transform="translate(475,1064)" d="m0 0 18 4 11 1 4-5-1 4-7 11-7 7v-3l5-6h2l1-5-14-2-13-4z" fill="#508573"/>
<path transform="translate(542,1010)" d="m0 0 7 2 1-2 1 5 7 3 1-2v6l5 2-2 1-6-2-1 3h-2l1-7-4 1-2-2-2 1-2 5h-2l2-7-1-5z" fill="#437467"/>
<path transform="translate(738,922)" d="m0 0 2 1-1 3 3 3-2 2-10 4h-2v-2l-4-1 5-2 1-3 5-2z" fill="#65B9AA"/>
<path transform="translate(736,933)" d="m0 0 8 4-5 2 1 7 6 1 2 2h-6l-7-2-3 3-5-1 4-3-2-3 9 1-3-3h-2v-2l4-4z" fill="#72C8B2"/>
<path transform="translate(762,860)" d="m0 0h3v7l-10 7-7 3-3-4 1-4 4-1 6 2 5-3z" fill="#77E7D7"/>
<path transform="translate(863,728)" d="m0 0v3l-6 5-12 6-13 4h-20v-1l19-2 15-4 14-8z" fill="#010000"/>
<path transform="translate(654,954)" d="m0 0h2v2h9l1 11-5 2-2 3-4-1 6-5h3l-1-2h-5l-4-6z" fill="#6AC0AF"/>
<path transform="translate(822,930)" d="m0 0h2v8l-5 3-5 1-2-7z" fill="#7BE7D6"/>
<path transform="translate(565,1027)" d="m0 0 5 2 1 3-3 5-3 2-7-1 2-4z" fill="#F4FBF9"/>
<path transform="translate(858,725)" d="m0 0 2 1-7 5-15 5-17 3-11 1 3-3 27-4 11-4z" fill="#010000"/>
<path transform="translate(722,938)" d="m0 0 4 1-2 2-4 2 1 5-6 2-1-4-5-2-1 7-3-3v-2h2l1-4z" fill="#71BAA4"/>
<path transform="translate(482,936)" d="m0 0 10 2 31 9 1 2-8-1-32-9-2-1z" fill="#7BCFB4"/>
<path transform="translate(584,1020)" d="m0 0 6 4-2 4h-2l-2 4-7-1 1-4z" fill="#F5FCFA"/>
<path transform="translate(604,529)" d="m0 0 5 2 11 8 9 8 7 8 7 10-1 2-10-13-14-14-14-10z" fill="#010000"/>
<path transform="translate(600,1017)" d="m0 0 4 2 3 2v2l-6 5-7-2 1-4 2-4z" fill="#F1FBF8"/>
<path transform="translate(434,955)" d="m0 0 4 2 10 12 10 13-1 3-5-5-9-12-8-9z" fill="#6EB9A1"/>
<path transform="translate(813,693)" d="m0 0 3 1 4 2v3l3 1v1l-7 1-3-1-9-1v-2l6-1v-3z" fill="#ACE9D5"/>
<path transform="translate(507,1075)" d="m0 0 1 3 2 1-11 8-9 6-14 11-5 4-2-1 13-11 10-8 7-4 7-6z" fill="#020202"/>
<path transform="translate(1e3 884)" d="m0 0 2 4 1 9-2 7-4-4v-14z" fill="#ABEDA9"/>
<path transform="translate(512,1058)" d="m0 0 7 1-2 4-4 5h-2v2l-5 2-3 2 5-10h2l1-5z" fill="#E4F7F1"/>
<path transform="translate(574,1032)" d="m0 0 7 1-2 4-7 6-4-1v-4z" fill="#E8F9F4"/>
<path transform="translate(861,905)" d="m0 0h5v2l4-1 5-1-5 5-9 7h-1v-10z" fill="#7CE7D6"/>
<path transform="translate(662,605)" d="m0 0 2 1 3 6 3-1-1 6v5h-4l-3-5-1-7-2-1 3-1z" fill="#EBF7F1"/>
<path transform="translate(631,1027)" d="m0 0 2 1v2l5 2 1 3 2 1h-16v-3l5-5z" fill="#9BBEB2"/>
<path transform="translate(901,858)" d="m0 0 1 3-9 14-11 13-9 9-2-1 12-12 11-15z" fill="#010000"/>
<path transform="translate(500 1e3)" d="m0 0 4 2 16 13 9 6-2 3v-2l-5-2-7-5v-2l-5-2-10-9z" fill="#7BD3BA"/>
<path transform="translate(547,1037)" d="m0 0 6 1-2 4-6 6h-5l1-5 5-5z" fill="#EFFAF6"/>
<path transform="translate(719,920)" d="m0 0h2l1 4-8 7-4 4-3-1 1-2-5 4 1-4 6-3 3-1 2-4z" fill="#DAF5ED"/>
<path transform="translate(712,934)" d="m0 0h3v3l11-2v2l-6 3-13 3v-4z" fill="#ADEEE2"/>
<path transform="translate(824,738)" d="m0 0h9l1 2-3 4h-13l-1-3z" fill="#85E1C4"/>
<path transform="translate(670,1018)" d="m0 0v3l-9 9-9 6h-11l-7-6h3l5 1v3l10-1 10-7z" fill="#010000"/>
<path transform="translate(347,959)" d="m0 0 4 2 5 10 4 15 2 13-3-1-2-14-5-15-4-8z" fill="#89E1C4"/>
<path transform="translate(860,897)" d="m0 0h1v6l8-6 2 1-1 2 4-2-2 6v2l-4 2-4-2-4-1z" fill="#69B19A"/>
<path transform="translate(807,875)" d="m0 0m-1 1m-2 1h2v2h2l1 2 2 1-1 2h-2l-1 3-6 1v-9z" fill="#6DCFC0"/>
<path transform="translate(379,932)" d="m0 0 5 2 12 11 9 10 2 5h-3l-9-13-10-9-6-5z" fill="#83DBBD"/>
<path transform="translate(764,880)" d="m0 0 2 3-2 6-7 2-2-2v-4z" fill="#78E7D7"/>
<path transform="translate(725,957)" d="m0 0h7v3l8 1v1h-8l-2-1v-2l-4 1 2 2-1 1h-14l1-2h3l1-2 4-1z" fill="#64A891"/>
<path transform="translate(580,988)" d="m0 0 5 5 2 3-4 1-3 5h-3l-1-6 1-2h3l-1-4z" fill="#74E3D4"/>
<path transform="translate(517,1062)" d="m0 0v3l-2 4 3 1h-2l-1 4-5 4h-2l-1-4 1-4h3v-2l5-5z" fill="#89A99E"/>
<path transform="translate(731,849)" d="m0 0 4 1v4h2v3l2 1 8 8v2h-5l-11-17z" fill="#91EBDE"/>
<path transform="translate(609 1e3)" d="m0 0 4 1 2 5 3 5 3 4v2l-3-1-6-9-6 3-2 3-2-1 4-6h3z" fill="#427062"/>
<path transform="translate(536,1060)" d="m0 0 2 1-13 8-5 3-6 5-4 1 5-5 1-3 4-3h2l1-3 2 2z" fill="#010000"/>
<path transform="translate(551,993)" d="m0 0 5 2 1 4-3 7-2 1v-4l-4-1v-3h2v-2h2z" fill="#88D4CA"/>
<path transform="translate(653,972)" d="m0 0 2 1-11 12-7 7h-2l-2 4-2-1 11-12 5-5z" fill="#607A71"/>
<path transform="translate(671,558)" d="m0 0h2l3 18v8l-2 1-3-17z" fill="#EBF7F2"/>
<path transform="translate(598,979)" d="m0 0 2 1 4 7-1 2-2-1v-3l-4 2-7 8-2 4h-2l1-4 7-9h2z" fill="#5FA28E"/>
<path transform="translate(723,925)" d="m0 0h6v4l-11 5-2-1 1-4z" fill="#D6F5EC"/>
<path transform="translate(668,566)" d="m0 0 2 3 2 13-2 3-2-6-2-1-1-6 2-5z" fill="#F1F9F6"/>
<path transform="translate(458,985)" d="m0 0h2l9 12 6 7-1 3-5-5-4-5v-2l-3-1-4-6z" fill="#5D9D89"/>
<path transform="translate(706,932)" d="m0 0h2l1 4-3 4 1 6h-4l-1 2v-14l2 1z" fill="#8EE4CB"/>
<path transform="translate(715,896)" d="m0 0h3 5l-2 4-6 6-5-1 2-1 1-4z" fill="#9BEDE2"/>
<path transform="translate(802,920)" d="m0 0 5 1 1 3h2v2h-2v2l-7 1v-8z" fill="#71D6C5"/>
<path transform="translate(610,904)" d="m0 0 3 1 3 3 5 2 3 3v2l2 1-6 1-9-10z" fill="#77E8DB"/>
<path transform="translate(819,691)" d="m0 0h18l2 3-1 2-9-1-7-2z" fill="#C3ECDA"/>
<path transform="translate(671,529)" d="m0 0 2 3 2 9-1 4-3 1-3-13 3-1z" fill="#ABB0AE"/>
<path transform="translate(696,966)" d="m0 0h1v10l-3 23-2 2v-11z" fill="#447061"/>
<path transform="translate(820,868)" d="m0 0h3l1 9-5 2-4-1 2-1-1-7z" fill="#74E7D8"/>
<path transform="translate(825,728)" d="m0 0h7l-2 2-17 2-21-2v-1z" fill="#010000"/>
<path transform="translate(594,1034)" d="m0 0 1 3h9v1l-20 4-7 1 2-2 7-2h5v-2l-5-1v-1z" fill="#29443B"/>
<path transform="translate(624,963)" d="m0 0 1 3-5 2-6 1v2h-3v2l-3-1 2-4 3-3 5-1z" fill="#D6F5ED"/>
<path transform="translate(866,914)" d="m0 0 2 1-5 5v8l10 1-1 2h-12v-11l4-5z" fill="#7DE5D2"/>
<path transform="translate(819,910)" d="m0 0 4 1v8h-3v2l-6 1 3-4v-3h-2v-2h4z" fill="#76E7DA"/>
<path transform="translate(702,865)" d="m0 0 4 5 2 3-1 3-1-2-2 12-2 1z" fill="#9EECDE"/>
<path transform="translate(726,902)" d="m0 0 4 5 1 3-5 4-2-1v-5h-1l-4 2 2-4v-2z" fill="#7EE6D4"/>
<path transform="translate(583,1034)" d="m0 0 8 3v2l-12 3-1 2-3-1 2-4z" fill="#CFF3E8"/>
<path transform="translate(594,962)" d="m0 0 3 1-4 1-1 3 2 3 7-1-3 3-6 5-2-1 2-4-2-3h-6l4-4z" fill="#28433B"/>
<path transform="translate(865,735)" d="m0 0v3l-8 7-5 3-7 2-4-1 7-3 9-5z" fill="#010000"/>
<path transform="translate(623,1023)" d="m0 0 4 1 2 4-3 3h-5l-2-4z" fill="#EAF9F5"/>
<path transform="translate(812,732)" d="m0 0h15v2l-7 2h-12v-2z" fill="#70E9DF"/>
<path transform="translate(590,1027)" d="m0 0 6 1v4h-2v2h-8v-3h2z" fill="#F3FBF8"/>
<path transform="translate(968,809)" d="m0 0h2l1 6-2 23h-2v-13l1-6z" fill="#C6F5B8"/>
<path transform="translate(585,998)" d="m0 0 6 4 1 4-5 1-2-5-5 6h-2l2-5z" fill="#80E2CF"/>
<path transform="translate(542,1040)" d="m0 0v3l-2 5 17-2 3-2-2 4-21 2-1 2-2-1 3-5h2l1-4z" fill="#15221E"/>
<path transform="translate(629,1014)" d="m0 0v3l-3 4 4 3 4 1v-2l2 1-2 6-3-2-3 3-2-1 2-4-5-3 1-4z" fill="#2A453C"/>
<path transform="translate(805,907)" d="m0 0 2 1v3l2 1-1 5h-5v-2h-2l1-5z" fill="#76E6D6"/>
<path transform="translate(822,900)" d="m0 0h1v9l-5 1v-2h-2l-1-5z" fill="#70E8DE"/>
<path transform="translate(882,872)" d="m0 0 1 3-4 5-5 5-8 7-2-1 13-13 2-4z" fill="#5B9783"/>
<path transform="translate(715,929)" d="m0 0 2 1 1 3 5-1-2 3h-2v2l-5 1 1-4-5 3-3 3-2-1z" fill="#558D7A"/>
<path transform="translate(798,736)" d="m0 0h8l1 4 3 1-8 2h-11v-2l5-1h8v-1l-6-2z" fill="#010000"/>
<path transform="translate(614,1029)" d="m0 0 6 2-1 3-15 2 1-2-3-3 7 1 4-1z" fill="#94C6B8"/>
<path transform="translate(652,965)" d="m0 0h6l-2 2-5 1-2 4-6 1-4 3-2-1 10-8z" fill="#498477"/>
<path transform="translate(763,808)" d="m0 0h1v32h-1l-2-23z" fill="#70E9DF"/>
<path transform="translate(641,973)" d="m0 0 2 1 1 2-2 5-3 4h-3l-1-3 3-4-1-2z" fill="#7DE9DF"/>
<path transform="translate(687,963)" d="m0 0h5l-2 1 1 6-1 6h-1l-1-9-5 8-3 7-1-2 5-14z" fill="#34574B"/>
<path transform="translate(763,890)" d="m0 0h2v12l-5-5-2-5z" fill="#7BE5D1"/>
<path transform="translate(874,856)" d="m0 0h2l-1 4-8 7-4 5h-2l-1-3 8-7z" fill="#60A08B"/>
<path transform="translate(887,842)" d="m0 0 3 2-5 5-8 7-3-1z" fill="#79CAAF"/>
<path transform="translate(872,838)" d="m0 0h8v1l-6 2-8 8-3-2 5-5 4-2z" fill="#4F9083"/>
<path transform="translate(739,948)" d="m0 0 11 2 4 3-5 1-10-1z" fill="#F7FCFB"/>
<path transform="translate(709,944)" d="m0 0 5 1 2 3v3l-4 2h-3v-3l-1-3z" fill="#F6FCFA"/>
<path transform="translate(802,900)" d="m0 0h4v3h5v2l-6 2-1 2h-3v-8z" fill="#77E6D6"/>
<path transform="translate(601,964)" d="m0 0h3v3l-7 4-4-1-2-4 3-1 1 1h6z" fill="#E7F9F4"/>
<path transform="translate(811,690)" d="m0 0h14l-3 2 1 3h-7l-3-1-4-1 2-2z" fill="#D0EEE1"/>
<path transform="translate(475,1007)" d="m0 0h2v2h2v2h2l7 8v2h2v2l-4-1-6-7v-2l-4-2z" fill="#569381"/>
<path transform="translate(605,990)" d="m0 0h2l2 8-5-2-9 9-1 3-1-4v-2l5-3 6-7z" fill="#579380"/>
<path transform="translate(871,791)" d="m0 0h2v8l-2 3-3 1h-3z" fill="#7AE5D2"/>
<path transform="translate(685,695)" d="m0 0h2l6 8 1 3h2l3 4-1 2-6-5-6-7z" fill="#C5EDDC"/>
<path transform="translate(599,985)" d="m0 0h2v3l-4 3h-2l-1 4-5 4v-4l5-6h2l1-3z" fill="#F6FCFB"/>
<path transform="translate(714,951)" d="m0 0h6l-4 2-3 1 1 4 6-2-3 3-4 3-4-1 4-1-1-3-3-3z" fill="#487868"/>
<path transform="translate(720,941)" d="m0 0 4 1 7 3 1 2-7 1v-2l-3-1-3 1v-2l-2-2z" fill="#FAFDFC"/>
<path transform="translate(731,928)" d="m0 0 4 1 1 3-6 3h-2v-2l-4-1z" fill="#D6F5EE"/>
<path transform="translate(550,987)" d="m0 0 10 10 2 3-4-1v2h-2v-5l-4-3-5 1 2-6z" fill="#427062"/>
<path transform="translate(716,909)" d="m0 0h3l-2 4-7 7-4 1 2-4z" fill="#DAF5ED"/>
<path transform="translate(908,876)" d="m0 0 3 1v14l-1 6h-2l-1-5 1-1z" fill="#79E5D2"/>
<path transform="translate(525,1051)" d="m0 0 1 2-4 6h-2v3l-2-1 1-2h-8l2-4 2-3v4l7 1 2-5z" fill="#395E51"/>
<path transform="translate(662,1010)" d="m0 0v3l-9 10-9 8-2-1 14-13z" fill="#010000"/>
<path transform="translate(509,1037)" d="m0 0 5 1 7 3v2l4 1v1h-6l-1 2v-5l-5-1-4-2z" fill="#538B78"/>
<path transform="translate(359,954)" d="m0 0 5 5 5 10 1 6-3-3-3-7v-3h-2l-3-6z" fill="#8BE1C4"/>
<path transform="translate(706,914)" d="m0 0h1v6l2 1-4 5h-2l-1-7 1-3v2l2-1z" fill="#83CEB7"/>
<path transform="translate(880,840)" d="m0 0v3l-5 6-8 7-5 4 2-4 7-7 5-6z" fill="#010000"/>
<path transform="translate(554,1040)" d="m0 0h7l-3 6h-8z" fill="#F7FCFA"/>
<path transform="translate(596,973)" d="m0 0 11 1-1 3-6 3-4-4z" fill="#F1FAF7"/>
<path transform="translate(484,987)" d="m0 0 4 2 8 8 2 1-1 3-8-7-5-5z" fill="#77D8C3"/>
<path transform="translate(434,955)" d="m0 0 4 2 8 10v2l-4-2-7-8z" fill="#62A38D"/>
<path transform="translate(733,934)" d="m0 0 5 1-2 3-10 3v-3z" fill="#E4F8F4"/>
<path transform="translate(481,928)" d="m0 0 9 1 11 3v1l-14-1-6-2z" fill="#487C6E"/>
<path transform="translate(906,866)" d="m0 0h2l2 5v5l-4-1v-2h-2l1-5z" fill="#76E6D7"/>
<path transform="translate(539 1e3)" d="m0 0 3 4-2 1-2-1-1 5-4 8h-2l2-6 4-9z" fill="#33564B"/>
<path transform="translate(574,1010)" d="m0 0h2v2l4 2 5 3-2 5-3-1h2v-3h-2v-2l-6-2z" fill="#5A9D8B"/>
<path transform="translate(459,946)" d="m0 0 5 2 3 1v2l6 2 4 5-6-2-12-8z" fill="#457364"/>
<path transform="translate(855,798)" d="m0 0 1 3h2l1-2 1 3h-2v2h-4l-1 1h-6l-1-2 8-3z" fill="#7BE6D6"/>
<path transform="translate(875,749)" d="m0 0 3 4v2h-2l2 9-6-4z" fill="#010000"/>
<path transform="translate(869,740)" d="m0 0 1 3-9 8-6 2 5-5z" fill="#010000"/>
<path transform="translate(707,925)" d="m0 0h4v2l2 1-4 3h-2v-2l-5 3 1-5z" fill="#86D8C0"/>
<path transform="translate(710,901)" d="m0 0 1 2-1 2 4 2-3 4-2-1-2-2v2l-3-1z" fill="#5C9A86"/>
<path transform="translate(616,893)" d="m0 0 2 1-2 2-6 1v3l-1 4-4-5 1-3 7-2z" fill="#87E9DC"/>
<path transform="translate(820,889)" d="m0 0h3v6h-2l-1 4-3-3 2-6z" fill="#71E8DC"/>
<path transform="translate(636,844)" d="m0 0h1l1 11h1v8l-4 2z" fill="#7DE5D3"/>
<path transform="translate(565,834)" d="m0 0 3 1 1 2 9 2v1l-10 2-1-1-2 2z" fill="#77EAE0"/>
<path transform="translate(875,765)" d="m0 0 11 3 6 8-1 3-7-9-8-3z" fill="#010000"/>
<path transform="translate(851,721)" d="m0 0h5l-1 2-15 5h-6l3-2 10-3z" fill="#010000"/>
<path transform="translate(530,1022)" d="m0 0 2 4 7 2-2 3-4-2-4-1-2 4-1-4z" fill="#5D9E8B"/>
<path transform="translate(529,972)" d="m0 0 4 1 12 9v2l-5-2-11-9z" fill="#7CCEB3"/>
<path transform="translate(492,950)" d="m0 0 17 8v2l-4-1-14-7z" fill="#82DBBE"/>
<path transform="translate(960,912)" d="m0 0h1l1 8-1 7-2 1-1-9z" fill="#ACECB0"/>
<path transform="translate(821,748)" d="m0 0h10l1 3-5 1-8-1v-2z" fill="#73E9DF"/>
<path transform="translate(813,697)" d="m0 0h7v2l3 1v1l-7 1-6-1z" fill="#C4ECDA"/>
<path transform="translate(662,605)" d="m0 0 2 1 3 6 3-1-1 6v5l-2-3-5-11z" fill="#131413"/>
<path transform="translate(576,1039)" d="m0 0 1 2-4 4-10 4-4-1 9-4z" fill="#010000"/>
<path transform="translate(663,641)" d="m0 0 4 2 4 10-1 4-4-8-3-5z" fill="#F2FAF7"/>
<path transform="translate(347,959)" d="m0 0 4 2 5 10 1 4-3 1-2-7-4-8z" fill="#97E3C9"/>
<path transform="translate(379,932)" d="m0 0 5 2 12 11h-3l-8-7-6-5z" fill="#7FD3B7"/>
<path transform="translate(860,873)" d="m0 0h1l1 6 6-4v4l-5 4-3-1z" fill="#83DABD"/>
<path transform="translate(572,1029)" d="m0 0 9 2v2h-7l-4 4-2-1z" fill="#416D5E"/>
<path transform="translate(599,1013)" d="m0 0h3v3l3 1 1 3-9-3h2zm-3 5 1 3-4 3 2-4z" fill="#467364"/>
<path transform="translate(735,946)" d="m0 0 3 1v3 2l-9-1-1-2 4 1 1-3z" fill="#FAFDFC"/>
<path transform="translate(717,889)" d="m0 0 4 4 1 3-6 2-1-7h2z" fill="#7ACEB7"/>
<path transform="translate(572,965)" d="m0 0 2 1-5 5 1 5-4-2-2-3 5-4z" fill="#396357"/>
<path transform="translate(603,977)" d="m0 0 3 1-1 7h-3l-1-4-2-1z" fill="#97EADB"/>
<path transform="translate(740,943)" d="m0 0 9 2 4 4-10-2-3-1z" fill="#F5FCFB"/>
<path transform="translate(821,941)" d="m0 0h2v8h-3l-3-5 4-1z" fill="#75E9DF"/>
<path transform="translate(824,738)" d="m0 0h9l1 2h-8l-6 4h-2l-1-3z" fill="#70E9DF"/>
<path transform="translate(749,716)" d="m0 0 9 2h3l-2 4h-3l-1-2h-6z" fill="#010000"/>
<path transform="translate(463,1057)" d="m0 0 12 6v2l-5-1-8-5z" fill="#70BBA2"/>
<path transform="translate(580,1022)" d="m0 0 2 1-4 5-2 3-4-2-1 2-1-4h5z" fill="#81E2C9"/>
<path transform="translate(421,989)" d="m0 0 2 3 3 7v4h-2l-4-11z" fill="#82D9BC"/>
<path transform="translate(581,986)" d="m0 0 5 2v3l4-1-2 5-4-2-3-4z" fill="#F2FBF8"/>
<path transform="translate(623,974)" d="m0 0 2 1-11 10h-2l2-4z" fill="#73C3AA"/>
<path transform="translate(638,966)" d="m0 0 4 1-12 5-5 2 2-4 6-3z" fill="#5A9F8E"/>
<path transform="translate(706,932)" d="m0 0h2l1 4-5 4-2-1v-5l2 1z" fill="#92E6CF"/>
<path transform="translate(821,830)" d="m0 0 2 1-2 7-3 2-3-1 5-4-3-3z" fill="#72E8DC"/>
<path transform="translate(995,952)" d="m0 0 3 3-1 5h-2v3h-2l1-10z" fill="#C2F1BB"/>
<path transform="translate(739,925)" d="m0 0 3 1 2 6h-2l1 3-4 1-1-4 3-1v-4l-3-1z" fill="#DEF6EE"/>
<path transform="translate(470,923)" d="m0 0 9 3 4 2-5 1-9-4z" fill="#73C2A9"/>
<path transform="translate(707,908)" d="m0 0 3 1-2 5h-2l-1 4h-2l1-4v-3z" fill="#ABEEE1"/>
<path transform="translate(326,880)" d="m0 0h2l7 8 5 6-5-2-7-8z" fill="#8DE2C5"/>
<path transform="translate(1061,947)" d="m0 0h3v5l-4 4-2-1z" fill="#DDFBBB"/>
<path transform="translate(441,934)" d="m0 0 4 1v2l5 1 3 4-5-1-7-5z" fill="#56907E"/>
<path transform="translate(893,846)" d="m0 0 3 2-8 7-2 3h-2l2-4z" fill="#65A892"/>
<path transform="translate(468,1032)" d="m0 0 4 2 6 7h-3l-7-7z" fill="#82D8BB"/>
<path transform="translate(439,1031)" d="m0 0h2l5 8v2l-4-2-3-5z" fill="#7DD0B4"/>
<path transform="translate(723,935)" d="m0 0h3v2l-6 3h-5v-3z" fill="#DCF5ED"/>
<path transform="translate(1e3 870)" d="m0 0 2 1 3 10h-2v-2h-3z" fill="#D7F9B9"/>
<path transform="translate(813,852)" d="m0 0h2v4h-3l-1 3-5-2 4-3z" fill="#87E1C3"/>
<path transform="translate(876,755)" d="m0 0h2l2 8 2 1v2l-3 1-3-6z" fill="#8DE2C5"/>
<path transform="translate(794,693)" d="m0 0 3 1-3 1v2l-9 1 1-3z" fill="#CAEEDE"/>
<path transform="translate(664,630)" d="m0 0 4 1 2 5v5l-3-4-3-5z" fill="#F0F9F5"/>
<path transform="translate(585,1017)" d="m0 0 1 3 3-1 4 4-3 2-6-5z" fill="#7FE3CC"/>
<path transform="translate(578,991)" d="m0 0h2v3h-3l-2 4-3 2 1-4h2l2-4zm-7 9m-1 1m-2 1 2 1-2 1z" fill="#C6F2E7"/>
<path transform="translate(708,942)" d="m0 0h6l-2 2h-3l-1 7-3-3v-2h2z" fill="#58937F"/>
<path transform="translate(878,839)" d="m0 0 3 1-5 4-4 4h-2l1-3z" fill="#D4F5EC"/>
<path transform="translate(968,825)" d="m0 0 2 4-1 9h-2v-12z" fill="#BFF5AF"/>
<path transform="translate(794,744)" d="m0 0h13l-1 2-16 1z" fill="#70E9DF"/>
<path transform="translate(844,717)" d="m0 0 4 1-9 3h-7l3-2z" fill="#010000"/>
<path transform="translate(674,573)" d="m0 0 2 3v8l-2 1-1-11z" fill="#F4FAF8"/>
<path transform="translate(667,573)" d="m0 0h2l2 4 1 5-2 3-2-6-2-2z" fill="#D9F0E5"/>
</svg>
